<svg width="100" height="60" viewBox="0 0 100 60" fill="none" xmlns="http://www.w3.org/2000/svg">
<g filter="url(#filter0_i_2156_1424)">
<path d="M50 -40C40.1109 -40 30.444 -37.0676 22.2215 -31.5735C13.999 -26.0794 7.59043 -18.2705 3.80605 -9.13418C0.0216641 0.00212479 -0.968502 10.0555 0.960758 19.7545C2.89002 29.4536 7.65206 38.3627 14.6447 45.3553C21.6373 52.3479 30.5464 57.11 40.2455 59.0392C49.9445 60.9685 59.9979 59.9783 69.1342 56.1939C78.2705 52.4096 86.0794 46.0009 91.5735 37.7785C97.0676 29.556 100 19.8891 100 9.99999C99.986 -3.25653 94.7137 -15.9661 85.3399 -25.3399C75.9661 -34.7137 63.2565 -39.986 50 -40ZM53.8462 -21.0673L65.7644 -29.2644C72.5881 -26.5157 78.5816 -22.0429 83.1587 -16.2837L79.3125 -3.33174C79.2163 -3.33174 79.1154 -3.28366 79.0192 -3.25001L68.0481 0.312489C67.8835 0.365128 67.7228 0.429394 67.5673 0.504799L53.8462 -8.9327C53.8462 -9.02885 53.8462 -9.12981 53.8462 -9.23078V-20.7692C53.8462 -20.8702 53.8462 -20.9712 53.8462 -21.0673ZM34.25 -29.2644L46.1539 -21.0673C46.1539 -20.9712 46.1539 -20.8702 46.1539 -20.7692V-9.23078C46.1539 -9.12981 46.1539 -9.02885 46.1539 -8.9327L32.4231 0.524029C32.2676 0.448624 32.1069 0.384361 31.9423 0.331722L20.9712 -3.23078C20.875 -3.26443 20.7741 -3.28847 20.6779 -3.31251L16.8317 -16.2644C21.4131 -22.0341 27.4154 -26.5139 34.25 -29.2644ZM28 32.7981H14.375C10.3867 26.597 8.10022 19.4557 7.74521 12.0913L18.3221 3.97595C18.4131 4.01619 18.5062 4.05149 18.601 4.08172L29.5769 7.64903C29.7237 7.69336 29.873 7.72868 30.0241 7.7548L35.2115 22.8606C35.1394 22.9471 35.0673 23.0336 35 23.125L28.2212 32.4567C28.1413 32.5664 28.0675 32.6804 28 32.7981ZM60.9087 50.8654C53.7608 52.7692 46.2392 52.7692 39.0914 50.8654L34.2548 37.2115C34.3173 37.1346 34.3846 37.0625 34.4423 36.9808L41.226 27.6442C41.3058 27.5362 41.3796 27.4238 41.4471 27.3077H58.5529C58.6204 27.4238 58.6942 27.5362 58.774 27.6442L65.5577 36.9808C65.6154 37.0625 65.6827 37.1346 65.7452 37.2115L60.9087 50.8654ZM72 32.7836C71.9325 32.6659 71.8587 32.552 71.7789 32.4423L64.9952 23.125C64.9279 23.0336 64.8558 22.9471 64.7837 22.8606L69.9712 7.7548C70.1222 7.72868 70.2715 7.69336 70.4183 7.64903L81.3942 4.08172C81.489 4.05149 81.5821 4.01619 81.6731 3.97595L92.25 12.0913C91.895 19.4557 89.6085 26.597 85.6202 32.7981L72 32.7836Z" fill="#96D6A6"/>
</g>
<defs>
<filter id="filter0_i_2156_1424" x="0" y="-41" width="100" height="101" filterUnits="userSpaceOnUse" color-interpolation-filters="sRGB">
<feFlood flood-opacity="0" result="BackgroundImageFix"/>
<feBlend mode="normal" in="SourceGraphic" in2="BackgroundImageFix" result="shape"/>
<feColorMatrix in="SourceAlpha" type="matrix" values="0 0 0 0 0 0 0 0 0 0 0 0 0 0 0 0 0 0 127 0" result="hardAlpha"/>
<feOffset dy="-1"/>
<feGaussianBlur stdDeviation="2"/>
<feComposite in2="hardAlpha" operator="arithmetic" k2="-1" k3="1"/>
<feColorMatrix type="matrix" values="0 0 0 0 0.180392 0 0 0 0 0.682353 0 0 0 0 0.305882 0 0 0 1 0"/>
<feBlend mode="normal" in2="shape" result="effect1_innerShadow_2156_1424"/>
</filter>
</defs>
</svg>
